<svg width="12" height="12" viewBox="0 0 12 12" fill="none" xmlns="http://www.w3.org/2000/svg">
<path d="M7.50143 6.00001L10.7598 2.74168C11.1706 2.33084 11.1706 1.65084 10.7598 1.24001C10.3489 0.829176 9.66893 0.829176 9.2581 1.24001L5.99977 4.49834L2.74143 1.24001C2.3306 0.829176 1.6506 0.829176 1.23977 1.24001C0.828932 1.65084 0.828932 2.33084 1.23977 2.74168L4.4981 6.00001L1.23977 9.25834C0.828932 9.66918 0.828932 10.3492 1.23977 10.76C1.45227 10.9725 1.72143 11.0717 1.9906 11.0717C2.25977 11.0717 2.52893 10.9725 2.74143 10.76L5.99977 7.50168L9.2581 10.76C9.4706 10.9725 9.73977 11.0717 10.0089 11.0717C10.2781 11.0717 10.5473 10.9725 10.7598 10.76C11.1706 10.3492 11.1706 9.66918 10.7598 9.25834L7.50143 6.00001Z" fill="#0B315E"/>
</svg>
